<svg width="25" height="24" viewBox="0 0 25 24" fill="none" xmlns="http://www.w3.org/2000/svg">
<g id="bi:arrow-up">
<path id="Vector" fill-rule="evenodd" clip-rule="evenodd" d="M2.43811 11.9999C2.43811 12.1988 2.51713 12.3896 2.65778 12.5302C2.79844 12.6709 2.9892 12.7499 3.18811 12.7499H20.8776L16.1571 17.4689C16.0163 17.6097 15.9372 17.8007 15.9372 17.9999C15.9372 18.1991 16.0163 18.3901 16.1571 18.5309C16.2979 18.6717 16.4889 18.7509 16.6881 18.7509C16.8873 18.7509 17.0783 18.6717 17.2191 18.5309L23.2191 12.5309C23.289 12.4612 23.3444 12.3785 23.3822 12.2874C23.42 12.1962 23.4395 12.0986 23.4395 11.9999C23.4395 11.9013 23.42 11.8036 23.3822 11.7125C23.3444 11.6213 23.289 11.5386 23.2191 11.4689L17.2191 5.46891C17.1494 5.39918 17.0666 5.34386 16.9755 5.30612C16.8844 5.26839 16.7867 5.24896 16.6881 5.24896C16.4889 5.24896 16.2979 5.32808 16.1571 5.46891C16.0163 5.60974 15.9372 5.80075 15.9372 5.99991C15.9372 6.19907 16.0163 6.39008 16.1571 6.53091L20.8776 11.2499H3.18811C2.9892 11.2499 2.79844 11.3289 2.65778 11.4696C2.51713 11.6102 2.43811 11.801 2.43811 11.9999Z" fill="white"/>
</g>
</svg>
